<?xml version="1.0" standalone="no"?>
<!DOCTYPE svg PUBLIC "-//W3C//DTD SVG 20010904//EN"
 "http://www.w3.org/TR/2001/REC-SVG-20010904/DTD/svg10.dtd">
<svg version="1.0" xmlns="http://www.w3.org/2000/svg"
 width="256.000000pt" height="256.000000pt" viewBox="0 0 256.000000 256.000000"
 preserveAspectRatio="xMidYMid meet">
<metadata>
Created by potrace 1.11, written by Peter Selinger 2001-2013
</metadata>
<g transform="translate(0.000000,256.000000) scale(0.100000,-0.100000)"
fill="#000000" stroke="none">
<path d="M751 2385 c-132 -42 -179 -201 -94 -314 56 -73 189 -94 265 -41 62
42 83 84 83 165 0 61 -4 77 -28 113 -46 71 -142 104 -226 77z"/>
<path d="M1405 2356 c-21 -21 -25 -33 -20 -54 9 -38 16 -43 87 -59 204 -46
350 -193 394 -397 23 -105 36 -96 -144 -96 -152 0 -158 1 -167 22 -6 12 -23
31 -38 42 -26 20 -44 21 -258 24 -218 3 -230 4 -240 24 -19 35 -70 48 -194 48
l-115 0 -142 71 c-79 39 -156 71 -173 72 -83 2 -143 -68 -125 -146 12 -57 35
-75 179 -147 l131 -64 0 -232 0 -232 -120 -436 c-66 -240 -120 -452 -120 -472
0 -72 51 -124 122 -124 40 0 95 32 109 62 5 13 58 201 118 418 72 264 113 396
122 398 11 2 39 -96 113 -390 55 -216 105 -405 112 -420 31 -61 113 -87 172
-54 34 18 62 66 62 104 0 18 -49 227 -110 463 l-110 431 0 189 0 189 215 0
c229 0 261 6 285 50 10 19 21 20 171 20 l161 0 -7 -47 c-29 -196 -140 -345
-332 -444 -100 -51 -119 -78 -89 -123 23 -36 70 -34 149 5 217 109 357 291
395 513 18 105 19 106 114 106 39 0 39 -1 33 -30 -8 -36 6 -39 50 -9 17 11 51
31 78 45 26 13 47 30 47 37 0 11 -154 98 -174 97 -4 0 -5 -11 -2 -25 6 -23 4
-25 -26 -25 -18 0 -49 -3 -69 -6 l-36 -6 -12 83 c-30 201 -120 347 -275 444
-75 46 -183 90 -254 101 -35 5 -44 3 -67 -20z"/>
</g>
</svg>
